<svg id="Layer_1" data-name="Layer 1" xmlns="http://www.w3.org/2000/svg" viewBox="0 0 48.76 41.83"><defs><style>.cls-1{fill:none;stroke:#a6a6a6;stroke-miterlimit:10;stroke-width:2.75px;}.cls-2{fill:#a6a6a6;}</style></defs><title>Icon-reset</title><path class="cls-1" d="M-484.77-182.62" transform="translate(493.38 198.96)"/><polygon class="cls-2" points="20.32 24.27 11.33 15.27 2.34 24.27 0 21.93 11.33 10.6 22.66 21.93 20.32 24.27"/><path class="cls-2" d="M-465.54-199a21,21,0,0,0-11.24,3.3l2.39,2.39a17.65,17.65,0,0,1,8.85-2.39A17.63,17.63,0,0,1-447.93-178a17.63,17.63,0,0,1-17.61,17.61A17.63,17.63,0,0,1-483.15-178s0.1-4,2.27-6.17l-2.34-2.34c-3.15,3.15-3.23,8.26-3.24,8.49a20.94,20.94,0,0,0,20.92,20.92A20.94,20.94,0,0,0-444.62-178,20.94,20.94,0,0,0-465.54-199Z" transform="translate(493.38 198.96)"/></svg>