<svg id="Layer_1" data-name="Layer 1" xmlns="http://www.w3.org/2000/svg" viewBox="0 0 48.2 48.2"><defs><style>.cls-1{fill:#ff633a;}</style></defs><title>icon-search-glass</title><path class="cls-1" d="M-817.17-365.86A22.19,22.19,0,0,1-839.34-388a22.19,22.19,0,0,1,22.17-22.17A22.19,22.19,0,0,1-795-388,22.19,22.19,0,0,1-817.17-365.86Zm0-41A18.88,18.88,0,0,0-836-388a18.88,18.88,0,0,0,18.86,18.86A18.88,18.88,0,0,0-798.31-388,18.88,18.88,0,0,0-817.17-406.88Z" transform="translate(839.34 410.19)"/><rect class="cls-1" x="-798.94" y="-375.18" width="3.3" height="14.09" transform="translate(866.13 -261.4) rotate(-45)"/></svg>