<svg id="Layer_1" data-name="Layer 1" xmlns="http://www.w3.org/2000/svg" viewBox="0 0 44.69 41.93"><defs><style>.cls-1{fill:#a6a6a6;}</style></defs><title>icon-shortlist-2</title><path class="cls-1" d="M-693.18-60.12l-17.34-17.34c-1.91-1.91-5.11-5.83-5.11-10.72a13.88,13.88,0,0,1,13.87-13.87,13.77,13.77,0,0,1,8.61,3,13.79,13.79,0,0,1,8.35-2.8A13.88,13.88,0,0,1-670.93-88c0,5-2.73,8.35-5.11,10.73Zm-8.58-38.63a10.58,10.58,0,0,0-10.56,10.56c0,3.7,2.59,6.84,4.14,8.39l15,15,14.81-14.81c2.9-2.9,4.14-5.41,4.14-8.39A10.58,10.58,0,0,0-684.8-98.55,10.52,10.52,0,0,0-692-95.67l-1.16,1.09-1.13-1.12A10.5,10.5,0,0,0-701.76-98.75Z" transform="translate(715.62 102.05)"/><rect class="cls-1" x="-694.83" y="-83.08" width="16.22" height="3.3" transform="translate(560.35 -421.85) rotate(-46.54)"/></svg>