<svg id="Layer_1" data-name="Layer 1" xmlns="http://www.w3.org/2000/svg" viewBox="0 0 46.55 47.16"><defs><style>.cls-1{fill:#ff633a;}</style></defs><title>icon-share</title><path class="cls-1" d="M-596.47,211.14a10.09,10.09,0,0,1-10.08-10.08A10.1,10.1,0,0,1-596.47,191a10.1,10.1,0,0,1,10.08,10.08A10.09,10.09,0,0,1-596.47,211.14Zm0-17.42a7.34,7.34,0,0,0-7.33,7.33,7.34,7.34,0,0,0,7.33,7.33,7.34,7.34,0,0,0,7.33-7.33A7.34,7.34,0,0,0-596.47,193.72Z" transform="translate(606.56 -177.41)"/><path class="cls-1" d="M-570.09,197.58a10.1,10.1,0,0,1-10.08-10.08,10.09,10.09,0,0,1,10.08-10.08A10.09,10.09,0,0,1-560,187.5,10.1,10.1,0,0,1-570.09,197.58Zm0-17.42a7.34,7.34,0,0,0-7.33,7.33,7.34,7.34,0,0,0,7.33,7.33,7.34,7.34,0,0,0,7.33-7.33A7.34,7.34,0,0,0-570.09,180.17Z" transform="translate(606.56 -177.41)"/><path class="cls-1" d="M-570.32,224.58a10.1,10.1,0,0,1-10.08-10.08,10.1,10.1,0,0,1,10.08-10.08,10.1,10.1,0,0,1,10.08,10.08A10.1,10.1,0,0,1-570.32,224.58Zm0-17.42a7.34,7.34,0,0,0-7.33,7.33,7.34,7.34,0,0,0,7.33,7.33,7.34,7.34,0,0,0,7.33-7.33A7.34,7.34,0,0,0-570.32,207.16Z" transform="translate(606.56 -177.41)"/><rect class="cls-1" x="-589.43" y="192.34" width="12.28" height="2.75" transform="translate(443.77 -431.95) rotate(-28.46)"/><rect class="cls-1" x="-584.77" y="201.87" width="2.75" height="12.48" transform="translate(112.76 -582.19) rotate(-62.05)"/></svg>