<svg id="Layer_1" data-name="Layer 1" xmlns="http://www.w3.org/2000/svg" viewBox="0 0 60.81 38.7"><title>icon-gplus</title><g id="Google_" data-name="Google+"><path d="M-801.75,356.3V364h10.44c-1.64,5-4.18,7.67-10.44,7.67A11.32,11.32,0,0,1-813,360.13a11.32,11.32,0,0,1,11.28-11.49,10.93,10.93,0,0,1,7.5,2.82c1.59-1.59,1.46-1.82,5.5-5.64a19.22,19.22,0,0,0-13-5,19.33,19.33,0,0,0-19.31,19.35,19.33,19.33,0,0,0,19.31,19.35c15.94,0,19.84-13.91,18.55-23.18h-18.55Z" transform="translate(821.06 -340.78)"/><polygon points="54.11 15.9 54.11 9.2 49.33 9.2 49.33 15.9 42.45 15.9 42.45 20.69 49.33 20.69 49.33 27.59 54.11 27.59 54.11 20.69 60.81 20.69 60.81 15.9 54.11 15.9"/></g></svg>