<svg id="Layer_1" data-name="Layer 1" xmlns="http://www.w3.org/2000/svg" viewBox="0 0 84.4 44.62"><defs><style>.cls-1{fill:#fff;}</style></defs><title>Icon-ac</title><path class="cls-1" d="M-1495.06,1276h-81.48a1,1,0,0,1-1-1,1,1,0,0,1,1-1h81.48a1,1,0,0,1,1,1A1,1,0,0,1-1495.06,1276Z" transform="translate(1578 -1253.35)"/><path class="cls-1" d="M-1567.81,1298a1,1,0,0,1-1-.72,1,1,0,0,1,.68-1.24c2.25-.65,3.65-1.61,4.15-4.62a10.26,10.26,0,0,0,.12-2.22c0-.29,0-0.61,0-1a1,1,0,0,1,1-1,1,1,0,0,1,1,1c0,0.35,0,.66,0,0.93a12.15,12.15,0,0,1-.15,2.58,7,7,0,0,1-5.56,6.22A1,1,0,0,1-1567.81,1298Z" transform="translate(1578 -1253.35)"/><path class="cls-1" d="M-1550.8,1298a1,1,0,0,1-1-.72,1,1,0,0,1,.68-1.24c2.25-.65,3.65-1.61,4.15-4.62a10.27,10.27,0,0,0,.12-2.22c0-.29,0-0.6,0-1a1,1,0,0,1,1-1,1,1,0,0,1,1,1c0,0.35,0,.65,0,0.93a12.17,12.17,0,0,1-.15,2.59,7,7,0,0,1-5.56,6.22A1,1,0,0,1-1550.8,1298Z" transform="translate(1578 -1253.35)"/><path class="cls-1" d="M-1503.79,1298a1,1,0,0,1-.28,0,7,7,0,0,1-5.56-6.22,12.13,12.13,0,0,1-.15-2.59c0-.28,0-0.58,0-0.93a1,1,0,0,1,1-1,1,1,0,0,1,1,1c0,0.37,0,.69,0,1a10.25,10.25,0,0,0,.12,2.22c0.49,3,1.89,4,4.14,4.62a1,1,0,0,1,.68,1.24A1,1,0,0,1-1503.79,1298Z" transform="translate(1578 -1253.35)"/><path class="cls-1" d="M-1520.8,1298a1,1,0,0,1-.28,0,7,7,0,0,1-5.56-6.22,12.16,12.16,0,0,1-.15-2.59c0-.28,0-0.58,0-0.93a1,1,0,0,1,1-1,1,1,0,0,1,1,1c0,0.37,0,.69,0,1a10.27,10.27,0,0,0,.12,2.22c0.49,3,1.89,4,4.15,4.62a1,1,0,0,1,.68,1.24A1,1,0,0,1-1520.8,1298Z" transform="translate(1578 -1253.35)"/><path class="cls-1" d="M-1503.55,1284.54H-1568a10,10,0,0,1-10-10v-11.27a10,10,0,0,1,10-10h64.49a10,10,0,0,1,10,10v11.27A10,10,0,0,1-1503.55,1284.54Zm-64.49-29.18a8,8,0,0,0-8,8v11.27a8,8,0,0,0,8,8h64.49a8,8,0,0,0,8-8v-11.27a8,8,0,0,0-8-8H-1568Z" transform="translate(1578 -1253.35)"/><path class="cls-1" d="M-1530.27,1267.18h-11.06a1,1,0,0,1-1-1,1,1,0,0,1,1-1h11.06a1,1,0,0,1,1,1A1,1,0,0,1-1530.27,1267.18Z" transform="translate(1578 -1253.35)"/></svg>