<svg id="Layer_1" data-name="Layer 1" xmlns="http://www.w3.org/2000/svg" viewBox="0 0 17.43 17.42"><defs><style>.cls-1{fill:none;stroke:#fff;stroke-miterlimit:10;}</style></defs><title>icon-phone</title><path class="cls-1" d="M2849.32,247.19l-2.28-2.28a1.61,1.61,0,0,0-2.25-.1c-0.34.29-.63,0.64-1,0.93a2.68,2.68,0,0,1-.73.48,3.37,3.37,0,0,1-4.59-3.14,2.62,2.62,0,0,1,.84-2.1c0.23-.21.43-0.43,0.65-0.65a1.68,1.68,0,0,0,0-2.47c-0.78-.72-1.51-1.5-2.26-2.25a1.49,1.49,0,0,0-1.37-.45,4.51,4.51,0,0,0-.76.28l-1.3,1.3a0.15,0.15,0,0,1,0,.05,4.53,4.53,0,0,0-.89,2.7,8.67,8.67,0,0,0,.75,3.75,13.86,13.86,0,0,0,7.48,7.53,8.48,8.48,0,0,0,4.19.75,4.12,4.12,0,0,0,2.36-.9c0.41-.35.78-0.74,1.16-1.12A1.62,1.62,0,0,0,2849.32,247.19Z" transform="translate(-2832.89 -234.63)"/></svg>