<svg id="Layer_1" data-name="Layer 1" xmlns="http://www.w3.org/2000/svg" viewBox="0 0 55.59 50.53"><title>icon-linkedin</title><g id="LinkedIn"><rect x="1.4" y="16.21" width="10.83" height="34.33"/><path d="M-501.77,350.85c-6.21,0-10.1,3.36-10.82,5.72v-5.39h-12.17c0.16,2.86,0,34.33,0,34.33h12.17V366.93a7.82,7.82,0,0,1,.26-2.81,6.2,6.2,0,0,1,5.87-4.21c4.23,0,6.15,3.17,6.15,7.82v17.77H-488V366.42C-488,355.79-494.07,350.85-501.77,350.85Z" transform="translate(543.6 -334.97)"/><path d="M-537,335c-4,0-6.62,2.57-6.62,6s2.54,6,6.46,6h0.08c4.07,0,6.61-2.63,6.61-6S-533,335-537,335Z" transform="translate(543.6 -334.97)"/></g></svg>