<svg id="Layer_1" data-name="Layer 1" xmlns="http://www.w3.org/2000/svg" viewBox="0 0 41.08 41.08"><defs><style>.cls-1{fill:#a6a6a6;}</style></defs><title>icon-verified</title><path class="cls-1" d="M-794.64,221.11a20.56,20.56,0,0,1-20.54-20.54A20.56,20.56,0,0,1-794.64,180a20.56,20.56,0,0,1,20.54,20.54A20.56,20.56,0,0,1-794.64,221.11Zm0-37.78a17.26,17.26,0,0,0-17.24,17.24,17.26,17.26,0,0,0,17.24,17.24,17.26,17.26,0,0,0,17.24-17.24A17.26,17.26,0,0,0-794.64,183.33Z" transform="translate(815.18 -180.03)"/><polygon class="cls-1" points="15.95 27.81 9.44 21.01 11.82 18.72 16.36 23.46 29.48 14.1 31.4 16.79 15.95 27.81"/></svg>