<svg id="Layer_1" data-name="Layer 1" xmlns="http://www.w3.org/2000/svg" viewBox="0 0 75.85 48.7"><defs><style>.cls-1{fill:#ff4626;}.cls-2{fill:#4e4e4e;}</style></defs><title>icon-inbox-unread</title><path class="cls-1" d="M-611.74-400.24a9.34,9.34,0,0,0-9.33-9.33,9.34,9.34,0,0,0-9.33,9.33,9.34,9.34,0,0,0,9.33,9.33A9.34,9.34,0,0,0-611.74-400.24Z" transform="translate(687.59 409.57)"/><path class="cls-2" d="M-619.87-382.72v18.54h-64.42v-38h45.75a17.47,17.47,0,0,1,.68-3.3h-47.26a2.47,2.47,0,0,0-2.47,2.47v39.66a2.47,2.47,0,0,0,2.47,2.47H-619a2.47,2.47,0,0,0,2.47-2.47v-19.92A17.47,17.47,0,0,1-619.87-382.72Z" transform="translate(687.59 409.57)"/><path class="cls-2" d="M-635.9-390.84l-15.53,11.9L-677.09-398a1.65,1.65,0,0,0-2.31.34,1.65,1.65,0,0,0,.34,2.31l27.66,20.56,17.53-13.43A17.68,17.68,0,0,1-635.9-390.84Z" transform="translate(687.59 409.57)"/></svg>