<svg id="Layer_1" data-name="Layer 1" xmlns="http://www.w3.org/2000/svg" viewBox="0 0 33.83 40.61"><defs><style>.cls-1{fill:#a6a6a6;}</style></defs><title>icon-marker</title><path class="cls-1" d="M-616.54-162.16l-0.91-.59c-0.65-.42-16-10.48-16-23.09a16.94,16.94,0,0,1,16.91-16.93h0a16.81,16.81,0,0,1,12,4.95,16.81,16.81,0,0,1,5,12h0c0,12.37-15.34,22.67-16,23.1Zm0-37.3h0a13.63,13.63,0,0,0-13.6,13.62c0,9.21,10.44,17.41,13.62,19.69,3.17-2.33,13.62-10.68,13.61-19.71h0a13.52,13.52,0,0,0-4-9.62A13.53,13.53,0,0,0-616.56-199.46Z" transform="translate(633.48 202.76)"/><path class="cls-1" d="M-616.56-177.58a8.33,8.33,0,0,1-8.32-8.32,8.33,8.33,0,0,1,8.32-8.32,8.33,8.33,0,0,1,8.32,8.32A8.33,8.33,0,0,1-616.56-177.58Zm0-13.33a5,5,0,0,0-5,5,5,5,0,0,0,5,5,5,5,0,0,0,5-5A5,5,0,0,0-616.56-190.91Z" transform="translate(633.48 202.76)"/></svg>