<svg id="Layer_1" data-name="Layer 1" xmlns="http://www.w3.org/2000/svg" viewBox="0 0 71.02 44.6"><defs><style>.cls-1{fill:#4e4e4e;}</style></defs><title>icon-inbox-read</title><path class="cls-1" d="M-519.11-405.19v41h-64.42v-38h67.38a17.35,17.35,0,0,1,.2-3.3h-68.42a2.47,2.47,0,0,0-2.47,2.47v39.66a2.47,2.47,0,0,0,2.47,2.47h66.09a2.47,2.47,0,0,0,2.47-2.47v-42.13Z" transform="translate(586.83 405.47)"/><path class="cls-1" d="M-526.59-398l-24.1,19.09L-576.34-398a1.65,1.65,0,0,0-2.31.34,1.65,1.65,0,0,0,.34,2.31l27.66,20.56,26.12-20.64a1.63,1.63,0,0,0,.27-2.28l0,0A1.63,1.63,0,0,0-526.59-398Z" transform="translate(586.83 405.47)"/></svg>