<svg id="Layer_1" data-name="Layer 1" xmlns="http://www.w3.org/2000/svg" viewBox="0 0 8.26 8.26"><defs><style>.cls-1{fill:#3be0c0;}.cls-2{fill:#fff;}</style></defs><title>icon-nego</title><circle class="cls-1" cx="4.13" cy="4.13" r="4.13"/><path class="cls-2" d="M5134.3,2145.29a1.44,1.44,0,0,1,1.5-1.55c1.05,0,1.68,1,2.38,1a0.72,0.72,0,0,0,.73-0.81,0.18,0.18,0,0,1,.18-0.18h0.33a0.18,0.18,0,0,1,.18.18,1.4,1.4,0,0,1-1.42,1.53c-1,0-1.64-1-2.4-1a0.73,0.73,0,0,0-.77.82,0.18,0.18,0,0,1-.18.16h-0.34A0.17,0.17,0,0,1,5134.3,2145.29Z" transform="translate(-5132.82 -2140.47)"/></svg>