<svg id="Layer_1" data-name="Layer 1" xmlns="http://www.w3.org/2000/svg" viewBox="0 0 8.57 8.18"><defs><style>.cls-1{fill:#fc633f;}</style></defs><title>icon-star</title><path class="cls-1" d="M6394.07,2089.66l1.06,2.15a0.34,0.34,0,0,0,.26.19l2.37,0.34a0.34,0.34,0,0,1,.19.58l-1.71,1.67a0.34,0.34,0,0,0-.1.3l0.4,2.36a0.34,0.34,0,0,1-.5.36l-2.12-1.11a0.34,0.34,0,0,0-.32,0l-2.12,1.11a0.34,0.34,0,0,1-.5-0.36l0.4-2.36a0.34,0.34,0,0,0-.1-0.3l-1.71-1.67a0.34,0.34,0,0,1,.19-0.58l2.37-.34a0.34,0.34,0,0,0,.26-0.19l1.06-2.15A0.34,0.34,0,0,1,6394.07,2089.66Z" transform="translate(-6389.48 -2089.47)"/></svg>