<svg id="Layer_1" data-name="Layer 1" xmlns="http://www.w3.org/2000/svg" viewBox="0 0 10.5 9.32"><defs><style>.cls-1{fill:#fff;}.cls-2{fill:#d0d1d3;}</style></defs><title>FH_4</title><line class="cls-1" x1="5.2" y1="0.52" x2="2.53" y2="8.79"/><path class="cls-2" d="M3919.1,3810.61l-0.16,0a0.52,0.52,0,0,1-.34-0.66l2.67-8.27a0.52,0.52,0,0,1,1,.32l-2.67,8.27A0.52,0.52,0,0,1,3919.1,3810.61Z" transform="translate(-3916.58 -3801.29)"/><line class="cls-1" x1="8.11" y1="0.52" x2="5.44" y2="8.79"/><path class="cls-2" d="M3922,3810.61l-0.16,0a0.52,0.52,0,0,1-.34-0.66l2.67-8.27a0.52,0.52,0,0,1,1,.32l-2.67,8.27A0.52,0.52,0,0,1,3922,3810.61Z" transform="translate(-3916.58 -3801.29)"/><line class="cls-1" x1="0.52" y1="6.1" x2="8.94" y2="6.1"/><path class="cls-2" d="M3925.51,3807.91h-8.41a0.52,0.52,0,0,1,0-1h8.41A0.52,0.52,0,0,1,3925.51,3807.91Z" transform="translate(-3916.58 -3801.29)"/><line class="cls-1" x1="1.66" y1="3.31" x2="9.97" y2="3.31"/><path class="cls-2" d="M3926.55,3805.13h-8.32a0.52,0.52,0,1,1,0-1h8.32A0.52,0.52,0,0,1,3926.55,3805.13Z" transform="translate(-3916.58 -3801.29)"/></svg>