<svg id="Layer_1" data-name="Layer 1" xmlns="http://www.w3.org/2000/svg" viewBox="0 0 42.16 43.74"><defs><style>.cls-1{fill:#a6a6a6;}</style></defs><title>icon-compare</title><path class="cls-1" d="M-614.73-88.84A7.24,7.24,0,0,1-622-96.07a7.24,7.24,0,0,1,7.23-7.23,7.24,7.24,0,0,1,7.23,7.23A7.24,7.24,0,0,1-614.73-88.84Zm0-11.16a3.93,3.93,0,0,0-3.93,3.93,3.93,3.93,0,0,0,3.93,3.93,3.93,3.93,0,0,0,3.93-3.93A3.93,3.93,0,0,0-614.73-100Z" transform="translate(622.38 103.3)"/><polygon class="cls-1" points="36.58 24 33.28 24 33.28 8.88 21.48 8.88 21.48 5.58 36.58 5.58 36.58 24"/><path class="cls-1" d="M-587.45-59.56a7.24,7.24,0,0,1-7.23-7.23A7.24,7.24,0,0,1-587.45-74a7.24,7.24,0,0,1,7.23,7.23A7.24,7.24,0,0,1-587.45-59.56Zm0-11.16a3.93,3.93,0,0,0-3.93,3.93,3.93,3.93,0,0,0,3.93,3.93,3.93,3.93,0,0,0,3.93-3.93A3.93,3.93,0,0,0-587.45-70.71Z" transform="translate(622.38 103.3)"/><path class="cls-1" d="M-615.15-88.84a7.24,7.24,0,0,1-7.23-7.23,7.24,7.24,0,0,1,7.23-7.23,7.24,7.24,0,0,1,7.23,7.23A7.24,7.24,0,0,1-615.15-88.84Zm0-11.16a3.93,3.93,0,0,0-3.93,3.93,3.93,3.93,0,0,0,3.93,3.93,3.93,3.93,0,0,0,3.93-3.93A3.93,3.93,0,0,0-615.15-100Z" transform="translate(622.38 103.3)"/><polygon class="cls-1" points="23.77 38.16 5.92 38.16 5.92 19.75 9.22 19.75 9.22 34.86 23.77 34.86 23.77 38.16"/></svg>