<svg id="Layer_1" data-name="Layer 1" xmlns="http://www.w3.org/2000/svg" viewBox="0 0 55.25 55.25"><title>icon-insta</title><g id="Instagram"><path d="M-275.85,332.06H-318a6.56,6.56,0,0,0-6.57,6.55v42.14A6.56,6.56,0,0,0-318,387.3h42.11a6.56,6.56,0,0,0,6.57-6.55V338.61A6.56,6.56,0,0,0-275.85,332.06Zm-9,8.63a1.73,1.73,0,0,1,1.73-1.73h5.18a1.73,1.73,0,0,1,1.73,1.73v5.18a1.73,1.73,0,0,1-1.73,1.73h-5.18a1.73,1.73,0,0,1-1.73-1.73v-5.18Zm-12,8.46a10.61,10.61,0,0,1,10.62,10.6,10.61,10.61,0,0,1-10.62,10.6,10.61,10.61,0,0,1-10.62-10.6A10.61,10.61,0,0,1-296.84,349.14Zm22.38,31.25a1.73,1.73,0,0,1-1.73,1.73h-41.43a1.73,1.73,0,0,1-1.73-1.73V354.5h6.91a10.55,10.55,0,0,0-1.2,5.24,16.81,16.81,0,0,0,16.81,16.77A16.81,16.81,0,0,0-280,359.74c0-1.53-.22-3.91-1.33-5.24h6.91v25.9Z" transform="translate(324.53 -332.06)"/></g></svg>