<svg id="Layer_1" data-name="Layer 1" xmlns="http://www.w3.org/2000/svg" viewBox="0 0 56.44 47.03"><title>icon-twitter</title><g id="Twitter"><path d="M-362.59,336.86a22.81,22.81,0,0,1-7.36,2.88A11.42,11.42,0,0,0-378.4,336,11.73,11.73,0,0,0-390,347.87a12.11,12.11,0,0,0,.3,2.7,32.6,32.6,0,0,1-23.87-12.41,12.09,12.09,0,0,0-1.57,6A12,12,0,0,0-410,354a11.37,11.37,0,0,1-5.25-1.48v0.15a11.8,11.8,0,0,0,9.29,11.64,11,11,0,0,1-3.05.42,11.25,11.25,0,0,1-2.18-.21,11.62,11.62,0,0,0,10.82,8.24,22.86,22.86,0,0,1-14.38,5.09,23.17,23.17,0,0,1-2.76-.16A32.24,32.24,0,0,0-399.72,383c21.3,0,32.94-18.09,32.94-33.78,0-.52,0-1,0-1.54a23.77,23.77,0,0,0,5.77-6.15,22.62,22.62,0,0,1-6.65,1.87A11.85,11.85,0,0,0-362.59,336.86Z" transform="translate(417.47 -335.99)"/></g></svg>