<svg id="Layer_1" data-name="Layer 1" xmlns="http://www.w3.org/2000/svg" viewBox="0 0 28 33.47"><defs><style>.cls-1{fill:#ff633a;}</style></defs><title>Icons-user</title><path class="cls-1" d="M-326.66-400.47a7.92,7.92,0,0,0-7.92,7.92,7.92,7.92,0,0,0,7.92,7.92,7.92,7.92,0,0,0,7.92-7.92A7.92,7.92,0,0,0-326.66-400.47Zm0,12.53a4.62,4.62,0,0,1-4.61-4.61,4.62,4.62,0,0,1,4.61-4.61,4.62,4.62,0,0,1,4.61,4.61A4.62,4.62,0,0,1-326.66-387.94Z" transform="translate(341 400.47)"/><path class="cls-1" d="M-318.36-386.17a10.58,10.58,0,0,1-2.36,2.33,10.84,10.84,0,0,1,4.71,8.9V-369h3v-5.95A13.89,13.89,0,0,0-318.36-386.17Z" transform="translate(341 400.47)"/><path class="cls-1" d="M-337-374.95a10.61,10.61,0,0,1,4.45-8.9,12,12,0,0,1-2.64-2.33A14.29,14.29,0,0,0-341-374.95V-367h15v-4h-11v-3.95Z" transform="translate(341 400.47)"/></svg>