<svg id="Layer_1" data-name="Layer 1" xmlns="http://www.w3.org/2000/svg" viewBox="0 0 33.85 42.87"><defs><style>.cls-1{fill:#ff633a;}</style></defs><title>Icons-bell</title><rect class="cls-1" x="-809.41" y="-197.92" width="14.23" height="3.3" transform="translate(840.13 68.82) rotate(-9.16)"/><path class="cls-1" d="M-785.27-161.2h-33.85l3.23-19.46c1.31-7.88,6.52-13,13.28-13h0.83c6.76,0,12,5.09,13.28,13Zm-30-3.3h26.06l-2.59-15.61c-0.78-4.71-3.88-10.21-10-10.21h-0.83c-6.14,0-9.24,5.5-10,10.21Z" transform="translate(819.12 199.03)"/><path class="cls-1" d="M-808.15-168.46l-3.27-.43,1.46-11c0.38-2.73,2.43-7.88,7.46-7.88v3.3c-3.44,0-4.18,5-4.19,5Z" transform="translate(819.12 199.03)"/><path class="cls-1" d="M-802.5-156.16a4.57,4.57,0,0,1-4.56-4.56h3.3a1.26,1.26,0,0,0,1.26,1.26,1.26,1.26,0,0,0,1.26-1.26h3.3A4.57,4.57,0,0,1-802.5-156.16Z" transform="translate(819.12 199.03)"/></svg>