<svg id="Layer_1" data-name="Layer 1" xmlns="http://www.w3.org/2000/svg" viewBox="0 0 50.63 39.23"><defs><style>.cls-1{fill:#a6a6a6;}</style></defs><title>Icon-mutual</title><path class="cls-1" d="M-526-162.16h-3.3v-4.91c0-8.76-5.39-15.89-12-15.89v-3.3a5.45,5.45,0,0,0,5.44-5.44,5.45,5.45,0,0,0-5.44-5.44v-3.3a8.75,8.75,0,0,1,8.74,8.74,8.73,8.73,0,0,1-3.19,6.75c5.71,2.79,9.77,9.76,9.77,17.89v4.91Z" transform="translate(576.64 201.39)"/><path class="cls-1" d="M-558.79-181.28a10.06,10.06,0,0,1-10.05-10.05,10.06,10.06,0,0,1,10.05-10.05,10.06,10.06,0,0,1,10.05,10.05A10.06,10.06,0,0,1-558.79-181.28Zm0-16.8a6.76,6.76,0,0,0-6.75,6.75,6.76,6.76,0,0,0,6.75,6.75,6.76,6.76,0,0,0,6.75-6.75A6.76,6.76,0,0,0-558.79-198.09Z" transform="translate(576.64 201.39)"/><path class="cls-1" d="M-540.94-162.16h-3.3c0-10.55-6.52-19.13-14.55-19.13s-14.54,8.58-14.54,19.13h-3.3c0-12.37,8-22.43,17.85-22.43S-540.94-174.53-540.94-162.16Z" transform="translate(576.64 201.39)"/></svg>