<svg id="Layer_1" data-name="Layer 1" xmlns="http://www.w3.org/2000/svg" viewBox="0 0 71.96 55.4"><defs></defs><title>icon-bed</title><rect class="cls-1" x="0.96" y="40.81" width="69.92" height="2"/><polygon class="cls-1" points="63.84 24 61.84 24 61.84 2 7.84 2 7.84 24 5.84 24 5.84 0 63.84 0 63.84 24"/><path class="cls-1" d="M-1531.14,534.26h-2v-5.5a3,3,0,0,0-3-3h-6.33a3,3,0,0,0-3,3v5.1h-2v-5.1a5,5,0,0,1,5-5h6.33a5,5,0,0,1,5,5v5.5Z" transform="translate(1564.84 -513)"/><path class="cls-1" d="M-1510.3,534.26h-2v-5.5a3,3,0,0,0-3-3h-6.33a3,3,0,0,0-3,3v5.1h-2v-5.1a5,5,0,0,1,5-5h6.33a5,5,0,0,1,5,5v5.5Z" transform="translate(1564.84 -513)"/><path class="cls-1" d="M-1492.88,550.34h-2A15.09,15.09,0,0,0-1510,535.27h-37.73a15.09,15.09,0,0,0-15.08,15.08h-2a17.1,17.1,0,0,1,17.08-17.08H-1510A17.1,17.1,0,0,1-1492.88,550.34Z" transform="translate(1564.84 -513)"/><polygon class="cls-1" points="71.96 55.4 69.96 55.4 69.96 38.14 2 38.14 2 55.4 0 55.4 0 36.14 71.96 36.14 71.96 55.4"/></svg>