<svg id="Layer_1" data-name="Layer 1" xmlns="http://www.w3.org/2000/svg" viewBox="0 0 48 31.54"><defs><style>.cls-1{fill:#bbbcc0;}.cls-2{fill:#fff;}</style></defs><title>icon-sofa</title><path class="cls-1" d="M-788.94-95h-12.27a2.85,2.85,0,0,0-1,.18,2.85,2.85,0,0,0-1-.18h-12.27C-817-95-818-93.52-818-91.93v12.27A2.44,2.44,0,0,0-815.44-77h12.27a2.85,2.85,0,0,0,1-.18,2.85,2.85,0,0,0,1,.18h12.27A2.75,2.75,0,0,0-786-79.66V-91.93A3.1,3.1,0,0,0-788.94-95ZM-815-92h11v12h-11V-92Zm26,12h-11V-92h11v12Z" transform="translate(826 95)"/><line class="cls-2" x1="7.02" y1="28.27" x2="7.02" y2="31.54"/><rect class="cls-1" x="5.37" y="28.27" width="3.3" height="3.27"/><line class="cls-2" x1="39.36" y1="28.27" x2="39.36" y2="31.54"/><rect class="cls-1" x="37.7" y="28.27" width="3.3" height="3.27"/><path class="cls-1" d="M-782.73-86H-789v3h6.27A1.75,1.75,0,0,1-781-81.55v11.74A2.09,2.09,0,0,1-782.73-68h-38.92A1.75,1.75,0,0,1-823-69.81V-81.55A1.39,1.39,0,0,1-821.65-83H-815v-3h-6.65A4.2,4.2,0,0,0-826-81.55v11.74c0,2.61,1.74,4.81,4.35,4.81h38.92A4.81,4.81,0,0,0-778-69.81V-81.55A4.51,4.51,0,0,0-782.73-86Z" transform="translate(826 95)"/><rect class="cls-1" x="22" y="9" width="4" height="3"/></svg>